<?xml version="1.0" encoding="UTF-8"?>
<svg xmlns="http://www.w3.org/2000/svg" viewBox="0 0 24 24" width="24" height="24" fill="none" stroke="currentColor" stroke-width="1.2" stroke-linecap="round" stroke-linejoin="round">
  <path d="M15.93 10.4c-.6-1-1.57-1.74-2.71-2v-1.44A2 2 0 0 0 11.22 5h-1.94a2 2 0 0 0-2 2v1.45a7 7 0 0 0-4.9 6.55c0 .34.03.67.08.98L.59 16.4a2 2 0 0 0 1.36 3.58h.38l.83-.14a7 7 0 0 0 4.74 3.4v1.67a2 2 0 0 0 2 2h1.45a2 2 0 0 0 2-2v-1.78h.48v1.78a2 2 0 0 0 2 2h1.45a2 2 0 0 0 2-2v-1.28c1.92-1.35 3.26-3.44 3.66-5.88h.43a2.5 2.5 0 0 0 2.5-2.5v-2c0-1.06-.65-1.97-1.57-2.36-1.36-2.86-4.74-4.4-7.87-1.97zm-8.98-3.47v-.93c0-.24.2-.44.45-.44h1.67c.24 0 .44.2.44.44v1.44A5.27 5.27 0 0 0 8.36 8h-.28a5.5 5.5 0 0 0-1.13.53zM5 12a1 1 0 1 1 0-2 1 1 0 0 1 0 2z"/>
</svg> 